<?xml version="1.0" encoding="UTF-8"?>
<svg xmlns="http://www.w3.org/2000/svg" xmlns:xlink="http://www.w3.org/1999/xlink" version="1.1" width="90" height="90" x="0" y="0" viewBox="0 0 64 64" style="enable-background:new 0 0 512 512" xml:space="preserve">
  <g>
    <g xmlns="http://www.w3.org/2000/svg" id="Layer_4" data-name="Layer 4">
      <path d="M1.011,36.148,2.639,47H2a1,1,0,0,0-.97,1.243l2,8A1,1,0,0,0,4,57H60a1,1,0,0,0,.97-.757l2-8A1,1,0,0,0,62,47h-.639l1.628-10.852a.992.992,0,0,0-.041-.444l.007,0-5-16A1,1,0,0,0,57,19a61.358,61.358,0,0,0-23.477,4.644L13.2,32.014c-.737-.287-1.474-.575-2.2-.9V21h5a1,1,0,0,0,1-1V8a1,1,0,0,0-1-1H4A1,1,0,0,0,3,8V20a1,1,0,0,0,1,1H9v9.12c-1.177-.607-2.338-1.248-3.463-1.964a1,1,0,0,0-1.456.45l-3,7h0A1,1,0,0,0,1.011,36.148ZM9,13h2v2H9ZM7,15H5V13H7Zm2-4V9h2v2Zm4,2h2v2H13Zm-2,4v2H9V17Zm2,2V17h2v2Zm2-8H13V9h2ZM7,9v2H5V9ZM5,17H7v2H5ZM3.247,37.574q3.452,1.352,6.987,2.368L10.57,47H4.661ZM53.335,49h3.384l-1.5,6h-2.17Zm-2.289,6h-4L47.7,41.411q2.033-.412,4.042-.937Zm-6,0H40V48a1,1,0,0,0-1-1H25a1,1,0,0,0-1,1v7H18.954l-.629-13.2A78.828,78.828,0,0,0,31.992,43h.016a78.828,78.828,0,0,0,13.667-1.2ZM33,49h5v6H33Zm-2,6H26V49h5ZM16.3,41.411,16.951,55h-4l-.692-14.526Q14.272,40.995,16.3,41.411ZM10.951,55H8.781l-1.5-6h3.384Zm-7.67-6H5.219l1.5,6H4.781Zm55.938,6H57.281l1.5-6h1.938ZM53.43,47l.336-7.058q3.534-1.017,6.987-2.368L59.339,47ZM34.285,25.494a59.329,59.329,0,0,1,21.674-4.479,12.676,12.676,0,0,1-.322,2.014,57.353,57.353,0,0,0-20.591,4.314L19.2,33.866c-1.066-.246-2.121-.535-3.165-.86Zm20.667-.442a12.6,12.6,0,0,1-7.788,7.006l-.922.29A57.047,57.047,0,0,1,29.039,35a43.921,43.921,0,0,1-6.248-.448l13.017-5.36A55.385,55.385,0,0,1,54.952,25.052ZM5.461,30.461A45.694,45.694,0,0,0,29.039,37a59.033,59.033,0,0,0,17.805-2.745l.922-.29a14.577,14.577,0,0,0,9.56-9.57l3.443,11.02-.213.085A76.515,76.515,0,0,1,32.007,41a.038.038,0,0,0-.015,0A76.552,76.552,0,0,1,3.444,35.5l-.121-.049Z" fill="#6500ff" data-original="#000000"/>
    </g>
  </g>
</svg>
