<?xml version="1.0" encoding="UTF-8"?>
<svg xmlns="http://www.w3.org/2000/svg" xmlns:xlink="http://www.w3.org/1999/xlink" version="1.1" width="85" height="85" x="0" y="0" viewBox="0 0 32 32" style="enable-background:new 0 0 512 512" xml:space="preserve" class="">
  <g>
    <g xmlns="http://www.w3.org/2000/svg" id="Clothes_x2C__clothing_x2C__digital_x2C__electronic_x2C__smart_x2C__t-shirt">
      <g>
        <g fill="rgb(0,0,0)">
          <path d="m27.206 6.388c-.156 0-.31-.073-.407-.209-1.006-1.409-2.565-2.373-4.276-2.643-2.665-.42-5.327-.581-7.973-.491-.266.031-.508-.206-.517-.482-.01-.276.206-.508.482-.517 2.705-.098 5.435.071 8.113.494 2.025.319 3.823 1.431 4.984 3.057.161.225.108.537-.116.697-.088.064-.189.094-.29.094z" fill="#6500ff" data-original="#000000" class=""/>
          <path d="m26.5 14c-.14 0-.278-.058-.376-.171l-.984-1.125c-.182-.208-.161-.523.047-.706.207-.182.522-.161.706.047l.679.776 3.238-2.429-3.01-4.215c-1.006-1.409-2.565-2.372-4.276-2.642-.819-.129-1.631-.231-2.509-.315l-.53.848c-.757 1.21-2.06 1.932-3.485 1.932s-2.728-.722-3.484-1.931l-.53-.848c-.877.084-1.685.185-2.458.307-1.761.278-3.32 1.241-4.326 2.65l-3.01 4.215 3.238 2.429.716-.819c.182-.208.498-.229.706-.047s.229.498.047.706l-1.022 1.168c-.173.197-.469.226-.677.07l-4-3c-.217-.163-.265-.47-.107-.69l3.294-4.612c1.162-1.627 2.96-2.738 4.933-3.049.937-.148 1.862-.26 2.881-.352.192-.014.369.073.469.233l.693 1.109c.573.915 1.558 1.461 2.637 1.461s2.064-.546 2.636-1.461l.694-1.109c.1-.16.271-.252.469-.233 1.019.092 1.945.204 2.83.343 2.025.32 3.823 1.431 4.984 3.057l3.294 4.612c.158.221.11.527-.107.69l-4 3c-.09.068-.195.101-.3.101z" fill="#6500ff" data-original="#000000" class=""/>
        </g>
      </g>
      <g fill="rgb(0,0,0)">
        <g>
          <path d="m12.5 30c-.276 0-.5-.224-.5-.5v-10.849l-1.916-2.874c-.055-.082-.084-.178-.084-.277v-2c0-.276.224-.5.5-.5s.5.224.5.5v1.849l1.916 2.874c.055.082.084.178.084.277v11c0 .276-.224.5-.5.5z" fill="#6500ff" data-original="#000000" class=""/>
          <path d="m14.5 30c-.276 0-.5-.224-.5-.5v-13.349l-.916-1.374c-.055-.082-.084-.178-.084-.277v-3c0-.276.224-.5.5-.5s.5.224.5.5v2.849l.916 1.374c.055.082.084.178.084.277v13.5c0 .276-.224.5-.5.5z" fill="#6500ff" data-original="#000000" class=""/>
          <path d="m19.5 30c-.276 0-.5-.224-.5-.5v-11c0-.099.029-.195.084-.277l1.916-2.874v-1.849c0-.276.224-.5.5-.5s.5.224.5.5v2c0 .099-.029.195-.084.277l-1.916 2.874v10.849c0 .276-.224.5-.5.5z" fill="#6500ff" data-original="#000000" class=""/>
          <path d="m17.5 30c-.276 0-.5-.224-.5-.5v-13.5c0-.099.029-.195.084-.277l.916-1.374v-2.849c0-.276.224-.5.5-.5s.5.224.5.5v3c0 .099-.029.195-.084.277l-.916 1.374v13.349c0 .276-.224.5-.5.5z" fill="#6500ff" data-original="#000000" class=""/>
        </g>
        <g>
          <circle id="XMLID_518_" cx="21.5" cy="11.5" r=".5" fill="#6500ff" data-original="#000000" class=""/>
          <circle id="XMLID_517_" cx="18.5" cy="9.5" r=".5" fill="#6500ff" data-original="#000000" class=""/>
          <circle id="XMLID_516_" cx="13.5" cy="9.5" r=".5" fill="#6500ff" data-original="#000000" class=""/>
          <circle id="XMLID_515_" cx="10.5" cy="11.5" r=".5" fill="#6500ff" data-original="#000000" class=""/>
        </g>
        <path d="m23.5 30h-15c-.276 0-.5-.224-.5-.5v-19.429c0-.276.224-.5.5-.5s.5.224.5.5v18.929h14v-18.929c0-.276.224-.5.5-.5s.5.224.5.5v19.429c0 .276-.224.5-.5.5z" fill="#6500ff" data-original="#000000" class=""/>
      </g>
    </g>
  </g>
</svg>
