<?xml version="1.0" encoding="UTF-8"?>
<svg xmlns="http://www.w3.org/2000/svg" xmlns:xlink="http://www.w3.org/1999/xlink" version="1.1" width="90" height="90" x="0" y="0" viewBox="0 0 507.245 507.245" style="enable-background:new 0 0 512 512" xml:space="preserve" class="">
  <g>
    <linearGradient xmlns="http://www.w3.org/2000/svg" id="lg1">
      <stop stop-opacity="1" stop-color="#4800bf" offset="0"/>
      <stop stop-opacity="1" stop-color="#6500ff" offset="1"/>
    </linearGradient>
    <linearGradient xmlns="http://www.w3.org/2000/svg" xmlns:xlink="http://www.w3.org/1999/xlink" id="SVGID_1_" gradientTransform="matrix(0 7.998 -7.998 0 8863.985 -3462.774)" gradientUnits="userSpaceOnUse" x1="431.888" x2="497.339" xlink:href="#lg1" y1="1071.257" y2="1071.257"/>
    <linearGradient xmlns="http://www.w3.org/2000/svg" xmlns:xlink="http://www.w3.org/1999/xlink" id="SVGID_00000043445361640808050950000007847985779908821131_" gradientTransform="matrix(0 7.998 -7.998 0 8863.991 -3462.769)" gradientUnits="userSpaceOnUse" x1="431.888" x2="497.339" xlink:href="#lg1" y1="1069.979" y2="1069.979"/>
    <linearGradient xmlns="http://www.w3.org/2000/svg" xmlns:xlink="http://www.w3.org/1999/xlink" id="SVGID_00000173121664578440201320000002138788605766789297_" gradientTransform="matrix(0 7.998 -7.998 0 8863.991 -3462.776)" gradientUnits="userSpaceOnUse" x1="431.888" x2="497.339" xlink:href="#lg1" y1="1063.703" y2="1063.703"/>
    <linearGradient xmlns="http://www.w3.org/2000/svg" xmlns:xlink="http://www.w3.org/1999/xlink" id="SVGID_00000133492498296688164280000017540553346037227409_" gradientTransform="matrix(0 7.998 -7.998 0 8864.005 -3462.779)" gradientUnits="userSpaceOnUse" x1="431.888" x2="497.339" xlink:href="#lg1" y1="1069.489" y2="1069.489"/>
    <linearGradient xmlns="http://www.w3.org/2000/svg" xmlns:xlink="http://www.w3.org/1999/xlink" id="SVGID_00000160874520669679246620000002158482496320286115_" gradientTransform="matrix(0 7.998 -7.998 0 8863.995 -3462.763)" gradientUnits="userSpaceOnUse" x1="431.888" x2="497.339" xlink:href="#lg1" y1="1060.81" y2="1060.81"/>
    <linearGradient xmlns="http://www.w3.org/2000/svg" xmlns:xlink="http://www.w3.org/1999/xlink" id="SVGID_00000101081192796789564080000013641059033252163988_" gradientTransform="matrix(0 7.998 -7.998 0 8864.001 -3462.784)" gradientUnits="userSpaceOnUse" x1="431.888" x2="497.339" xlink:href="#lg1" y1="1072.382" y2="1072.382"/>
    <linearGradient xmlns="http://www.w3.org/2000/svg" xmlns:xlink="http://www.w3.org/1999/xlink" id="SVGID_00000062879143064469456560000014159638421777676963_" gradientTransform="matrix(0 7.998 -7.998 0 8863.995 -3462.771)" gradientUnits="userSpaceOnUse" x1="431.888" x2="497.339" xlink:href="#lg1" y1="1066.595" y2="1066.595"/>
    <linearGradient xmlns="http://www.w3.org/2000/svg" xmlns:xlink="http://www.w3.org/1999/xlink" id="SVGID_00000150082176023645383490000008088219371613993889_" gradientTransform="matrix(0 8 -8 0 8866.131 -3463.257)" gradientUnits="userSpaceOnUse" x1="431.884" x2="497.336" xlink:href="#lg1" y1="1076.564" y2="1076.564"/>
    <linearGradient xmlns="http://www.w3.org/2000/svg" xmlns:xlink="http://www.w3.org/1999/xlink" id="SVGID_00000088114879370236520870000016540606988967232147_" gradientTransform="matrix(0 7.998 -7.998 0 8863.981 -3462.778)" gradientUnits="userSpaceOnUse" x1="431.888" x2="497.339" xlink:href="#lg1" y1="1073.047" y2="1073.047"/>
    <linearGradient xmlns="http://www.w3.org/2000/svg" xmlns:xlink="http://www.w3.org/1999/xlink" id="SVGID_00000004520957283376089130000008489947018632947900_" gradientTransform="matrix(0 7.998 -7.998 0 8863.982 -3462.768)" gradientUnits="userSpaceOnUse" x1="431.888" x2="497.339" xlink:href="#lg1" y1="1070.49" y2="1070.49"/>
    <linearGradient xmlns="http://www.w3.org/2000/svg" xmlns:xlink="http://www.w3.org/1999/xlink" id="SVGID_00000013159777312885760360000014685575465983557509_" gradientTransform="matrix(0 7.998 -7.998 0 8863.985 -3462.774)" gradientUnits="userSpaceOnUse" x1="431.888" x2="497.339" xlink:href="#lg1" y1="1068.956" y2="1068.956"/>
    <linearGradient xmlns="http://www.w3.org/2000/svg" xmlns:xlink="http://www.w3.org/1999/xlink" id="SVGID_00000023974212818574248040000006982792171982747033_" gradientTransform="matrix(0 7.998 -7.998 0 8863.986 -3462.764)" gradientUnits="userSpaceOnUse" x1="431.888" x2="497.339" xlink:href="#lg1" y1="1066.399" y2="1066.399"/>
    <linearGradient xmlns="http://www.w3.org/2000/svg" xmlns:xlink="http://www.w3.org/1999/xlink" id="SVGID_00000005956379561431177470000010358630338946802828_" gradientTransform="matrix(0 7.998 -7.998 0 8863.99 -3462.77)" gradientUnits="userSpaceOnUse" x1="431.888" x2="497.339" xlink:href="#lg1" y1="1064.865" y2="1064.865"/>
    <linearGradient xmlns="http://www.w3.org/2000/svg" xmlns:xlink="http://www.w3.org/1999/xlink" id="SVGID_00000020371139898978622500000002698678265968821126_" gradientTransform="matrix(0 7.998 -7.998 0 8863.989 -3462.761)" gradientUnits="userSpaceOnUse" x1="431.888" x2="497.339" xlink:href="#lg1" y1="1062.818" y2="1062.818"/>
    <linearGradient xmlns="http://www.w3.org/2000/svg" xmlns:xlink="http://www.w3.org/1999/xlink" id="SVGID_00000004512524059400997580000011103183976794124450_" gradientTransform="matrix(0 8 -8 0 8866.131 -3463.257)" gradientUnits="userSpaceOnUse" x1="431.884" x2="497.336" xlink:href="#lg1" y1="1079.632" y2="1079.632"/>
    <linearGradient xmlns="http://www.w3.org/2000/svg" xmlns:xlink="http://www.w3.org/1999/xlink" id="SVGID_00000032608766842065136810000003137776743901595550_" gradientTransform="matrix(0 7.998 -7.998 0 8864.002 -3462.766)" gradientUnits="userSpaceOnUse" x1="431.888" x2="497.339" xlink:href="#lg1" y1="1060.773" y2="1060.773"/>
    <linearGradient xmlns="http://www.w3.org/2000/svg" xmlns:xlink="http://www.w3.org/1999/xlink" id="SVGID_00000103236082305230837530000010106373840159041705_" gradientTransform="matrix(0 7.998 -7.998 0 8864.001 -3462.765)" gradientUnits="userSpaceOnUse" x1="431.888" x2="497.339" xlink:href="#lg1" y1="1055.148" y2="1055.148"/>
    <linearGradient xmlns="http://www.w3.org/2000/svg" xmlns:xlink="http://www.w3.org/1999/xlink" id="SVGID_00000062165579760213969290000000150634134035783081_" gradientTransform="matrix(0 7.998 -7.998 0 8864.001 -3462.775)" gradientUnits="userSpaceOnUse" x1="431.888" x2="497.339" xlink:href="#lg1" y1="1064.352" y2="1064.352"/>
    <g xmlns="http://www.w3.org/2000/svg">
      <g id="Layer_16">
        <path d="m268.238 219.212 44.99-44.99 11.569 11.569-44.99 44.99z" fill="url(#SVGID_1_)" data-original="url(#SVGID_1_)"/>
        <path d="m264.149 272.385 73.622-73.622 11.569 11.569-73.622 73.622z" fill="url(#SVGID_00000043445361640808050950000007847985779908821131_)" data-original="url(#SVGID_00000043445361640808050950000007847985779908821131_)"/>
        <path d="m345.372 185.209 11.569-11.569 11.569 11.569-11.569 11.569z" fill="url(#SVGID_00000173121664578440201320000002138788605766789297_)" data-original="url(#SVGID_00000173121664578440201320000002138788605766789297_)"/>
        <path d="m299.106 138.927 11.569-11.569 11.569 11.569-11.569 11.569z" fill="url(#SVGID_00000133492498296688164280000017540553346037227409_)" data-original="url(#SVGID_00000133492498296688164280000017540553346037227409_)"/>
        <path d="m368.507 208.355 11.569-11.569 11.569 11.569-11.569 11.569z" fill="url(#SVGID_00000160874520669679246620000002158482496320286115_)" data-original="url(#SVGID_00000160874520669679246620000002158482496320286115_)"/>
        <path d="m275.97 115.79 11.569-11.569 11.569 11.569-11.569 11.569z" fill="url(#SVGID_00000101081192796789564080000013641059033252163988_)" data-original="url(#SVGID_00000101081192796789564080000013641059033252163988_)"/>
        <path d="m322.244 162.072 11.569-11.569 11.569 11.569-11.569 11.569z" fill="url(#SVGID_00000062879143064469456560000014159638421777676963_)" data-original="url(#SVGID_00000062879143064469456560000014159638421777676963_)"/>
        <path d="m349.402 2.395c-3.195-3.194-8.374-3.194-11.569 0l-73.633 73.633c-1.534 1.534-2.397 3.615-2.397 5.784v8.181h-8.181c-2.17 0-4.25.863-5.784 2.397l-245.443 245.444c-3.194 3.195-3.194 8.374 0 11.569l155.448 155.447c3.195 3.194 8.374 3.194 11.569 0l245.443-245.443c1.534-1.534 2.397-3.615 2.397-5.784v-8.181h8.181c2.17 0 4.25-.863 5.784-2.397l73.633-73.633c3.194-3.195 3.194-8.374 0-11.569zm-267.589 403.287-21.157-21.157h21.157zm-37.52-37.52-1.751-1.775c8.528-17.714 22.188-32.452 39.205-42.298l17.942 9 5.514 16.535-18.596 18.539zm56.877-52.647c2.454-.777 4.909-1.465 7.404-2.045l-3.829 3.829zm19.095 128.637 11.454 3.804 1.268 8.885zm-22.09-24.618v-39.803l19.169-19.169 39.173 6.545 6.545 39.173-26.181 26.181zm17.541-90.07 18.408-18.408c9.551.294 19.006 1.992 28.062 5.04l8.443 25.313-9.818 9.818-40.089-6.676zm47.911 158.033-11.38-11.339-4.492-31.425 26.565-26.565 26.025 6.545 13.09 13.09zm19.75-135.697h27.105c6.269 8.635 11.085 18.235 14.26 28.422l-23.211 27.817-22.531-5.637-6.611-39.647zm-.696-25.993c4.568 2.854 8.897 6.075 12.943 9.63h-9.736zm45.325 97.31-3.019 3.019-9.384-9.392 13.09-15.676c.221 2.643.409 5.302.409 8.001-.032 4.703-.398 9.397-1.096 14.048zm194.039-194.039h-9.589l-9.171-9.171-11.569 11.569 9.171 9.171v9.589l-155.61 155.61c-1.72-63.177-54.329-112.997-117.505-111.277-40.784 1.11-77.892 23.85-97.396 59.685l-10.628-10.636 237.262-237.261h12.976c4.518 0 8.181-3.663 8.181-8.181v-12.976l65.451-65.451 143.879 143.879z" fill="url(#SVGID_00000150082176023645383490000008088219371613993889_)" data-original="url(#SVGID_00000150082176023645383490000008088219371613993889_)"/>
        <path d="m264.139 316.672 11.569-11.569 24.543 24.543-11.569 11.569z" fill="url(#SVGID_00000088114879370236520870000016540606988967232147_)" data-original="url(#SVGID_00000088114879370236520870000016540606988967232147_)"/>
        <path d="m288.682 308.498 11.569-11.569 16.358 16.358-11.569 11.569z" fill="url(#SVGID_00000004520957283376089130000008489947018632947900_)" data-original="url(#SVGID_00000004520957283376089130000008489947018632947900_)"/>
        <path d="m296.865 283.955 11.569-11.569 24.543 24.543-11.569 11.569z" fill="url(#SVGID_00000013159777312885760360000014685575465983557509_)" data-original="url(#SVGID_00000013159777312885760360000014685575465983557509_)"/>
        <path d="m321.408 275.78 11.569-11.569 16.358 16.358-11.569 11.569z" fill="url(#SVGID_00000023974212818574248040000006982792171982747033_)" data-original="url(#SVGID_00000023974212818574248040000006982792171982747033_)"/>
        <path d="m329.591 251.237 11.569-11.569 24.543 24.543-11.569 11.569z" fill="url(#SVGID_00000005956379561431177470000010358630338946802828_)" data-original="url(#SVGID_00000005956379561431177470000010358630338946802828_)"/>
        <path d="m345.954 234.883 11.569-11.569 24.543 24.543-11.569 11.569z" fill="url(#SVGID_00000020371139898978622500000002698678265968821126_)" data-original="url(#SVGID_00000020371139898978622500000002698678265968821126_)"/>
        <path d="m300.314 157.843-32.726-32.726c-3.195-3.194-8.374-3.194-11.569 0l-98.177 98.177c-3.194 3.195-3.194 8.374 0 11.569l32.726 32.726c3.195 3.194 8.374 3.194 11.569 0l98.177-98.177c3.194-3.196 3.194-8.375 0-11.569zm-103.961 92.392-21.157-21.157 86.609-86.609 21.157 21.157z" fill="url(#SVGID_00000004512524059400997580000011103183976794124450_)" data-original="url(#SVGID_00000004512524059400997580000011103183976794124450_)"/>
        <path d="m329.603 120.355 11.569-11.569 89.98 89.98-11.569 11.569z" fill="url(#SVGID_00000032608766842065136810000003137776743901595550_)" data-original="url(#SVGID_00000032608766842065136810000003137776743901595550_)"/>
        <path d="m395.04 136.72 11.569-11.569 49.08 49.08-11.569 11.569z" fill="url(#SVGID_00000103236082305230837530000010106373840159041705_)" data-original="url(#SVGID_00000103236082305230837530000010106373840159041705_)"/>
        <path d="m329.608 54.909 11.569-11.569 32.722 32.722-11.569 11.568z" fill="url(#SVGID_00000062165579760213969290000000150634134035783081_)" data-original="url(#SVGID_00000062165579760213969290000000150634134035783081_)"/>
      </g>
    </g>
  </g>
</svg>
