<svg width="24" height="18" viewBox="0 0 24 18" fill="none" xmlns="http://www.w3.org/2000/svg">
<mask id="mask0_104_1637" style="mask-type:alpha" maskUnits="userSpaceOnUse" x="0" y="0" width="24" height="18">
<path d="M5.28765 13.9144C10.5071 16.0644 14.9488 16.4831 19.9822 13.1367C19.9453 13.1951 18.9496 14.752 16.3313 15.5499C16.8845 16.3479 17.6405 17.2625 17.6405 17.2625C19.3184 17.2625 20.9594 16.7565 22.3792 15.7835C23.4855 15.005 24.1124 13.6621 23.9833 12.2609C23.762 9.86709 23.2273 7.53169 22.3976 5.29364C21.3466 2.3744 18.8205 0.35036 15.8888 0.0584126C15.6307 0.0389418 15.4463 0.0389419 15.3357 0.0389419L15.0407 0.350302C18.4149 1.36232 20.0929 2.93871 20.1297 2.99712C14.9484 0.233534 8.82688 0.19465 3.60873 2.88035C3.60873 2.88035 5.26821 1.14826 8.93745 0.233534L8.7162 0C8.32897 0 7.96019 0.0389416 7.57302 0.0972963C4.86254 0.583836 2.59463 2.54947 1.61737 5.25464C0.769182 7.59004 0.21604 10.0422 0.0132303 12.5333C-0.0973981 13.8567 0.492638 15.1607 1.52519 15.9197C2.88962 16.8733 4.51221 17.3793 6.15324 17.3793C6.15324 17.3793 6.81701 16.4646 7.48084 15.6472C4.99162 14.8687 3.97751 13.3118 3.95907 13.2534L4.42753 13.5059C4.70757 13.6569 4.99468 13.7937 5.28765 13.9144ZM8.1815 12.222C6.98298 12.183 6.04261 11.1126 6.07951 9.82815C6.1164 8.62154 7.03832 7.64846 8.1815 7.60952C9.38002 7.64846 10.3204 8.71883 10.2835 10.0033C10.2282 11.21 9.32468 12.1831 8.1815 12.222ZM15.7044 12.222C14.5059 12.183 13.5655 11.1126 13.6024 9.82815C13.6393 8.62154 14.5612 7.64846 15.7044 7.60952C16.9029 7.64846 17.8433 8.71883 17.8064 10.0033C17.7696 11.21 16.8476 12.1831 15.7044 12.222Z" fill="white"/>
</mask>
<g mask="url(#mask0_104_1637)">
<rect x="-44" y="-56" width="99" height="76" rx="38" fill="white"/>
</g>
</svg>
