<svg width="32" height="32" viewBox="0 0 32 32" fill="none" xmlns="http://www.w3.org/2000/svg">
<mask id="mask0_104_1268" style="mask-type:alpha" maskUnits="userSpaceOnUse" x="0" y="0" width="32" height="32">
<path d="M31.3094 9.45183C31.2366 7.80012 30.9695 6.66458 30.5869 5.68062C30.1922 4.63617 29.5849 3.70108 28.7893 2.92374C28.0119 2.13429 27.0707 1.52086 26.0383 1.13231C25.0487 0.749683 23.9191 0.482581 22.2674 0.409757C20.6033 0.330765 20.075 0.3125 15.8546 0.3125C11.6341 0.3125 11.1058 0.330765 9.44792 0.40359C7.79621 0.476414 6.66067 0.743753 5.67695 1.12614C4.63227 1.52086 3.69718 2.12813 2.91983 2.92374C2.13039 3.70108 1.51719 4.64234 1.1284 5.67469C0.745777 6.66458 0.478675 7.79395 0.405851 9.44566C0.326859 11.1097 0.308594 11.638 0.308594 15.8585C0.308594 20.079 0.326859 20.6072 0.399683 22.2651C0.472508 23.9168 0.739846 25.0524 1.12247 26.0363C1.51719 27.0808 2.13039 28.0158 2.91983 28.7932C3.69718 29.5826 4.63843 30.1961 5.67078 30.5846C6.66067 30.9672 7.79004 31.2343 9.44199 31.3072C11.0996 31.3802 11.6281 31.3983 15.8486 31.3983C20.0691 31.3983 20.5974 31.3802 22.2553 31.3072C23.907 31.2343 25.0425 30.9672 26.0262 30.5846C28.1154 29.7769 29.7671 28.1252 30.5748 26.0363C30.9572 25.0464 31.2245 23.9168 31.2973 22.2651C31.3702 20.6072 31.3884 20.079 31.3884 15.8585C31.3884 11.638 31.3823 11.1097 31.3094 9.45183ZM28.5101 22.1437C28.4432 23.6618 28.1882 24.4816 27.9756 25.0282C27.4533 26.3824 26.3785 27.4572 25.0242 27.9796C24.4777 28.1921 23.652 28.4471 22.1397 28.5138C20.5001 28.5868 20.0084 28.6048 15.8607 28.6048C11.7131 28.6048 11.2152 28.5868 9.58147 28.5138C8.06331 28.4471 7.2435 28.1921 6.69697 27.9796C6.02304 27.7305 5.40961 27.3358 4.9117 26.8196C4.39553 26.3155 4.00081 25.7082 3.75173 25.0343C3.53919 24.4878 3.28419 23.6618 3.21753 22.1498C3.14447 20.5102 3.12644 20.0182 3.12644 15.8706C3.12644 11.7229 3.14447 11.225 3.21753 9.59155C3.28419 8.07338 3.53919 7.25358 3.75173 6.70704C4.00081 6.03288 4.39553 5.41969 4.91787 4.92154C5.42171 4.40537 6.02898 4.01064 6.70313 3.76181C7.24967 3.54927 8.07564 3.29426 9.58764 3.22737C11.2273 3.15454 11.7192 3.13628 15.8667 3.13628C20.0205 3.13628 20.5122 3.15454 22.1459 3.22737C23.6641 3.29426 24.4839 3.54927 25.0304 3.76181C25.7043 4.01064 26.3178 4.40537 26.8157 4.92154C27.3319 5.42562 27.7266 6.03288 27.9756 6.70704C28.1882 7.25358 28.4432 8.07932 28.5101 9.59155C28.5829 11.2312 28.6012 11.7229 28.6012 15.8706C28.6012 20.0182 28.5829 20.504 28.5101 22.1437Z" fill="white"/>
<path d="M15.8527 7.875C11.4441 7.875 7.86719 11.4517 7.86719 15.8605C7.86719 20.2694 11.4441 23.846 15.8527 23.846C20.2615 23.846 23.8382 20.2694 23.8382 15.8605C23.8382 11.4517 20.2615 7.875 15.8527 7.875ZM15.8527 21.0405C12.9926 21.0405 10.6727 18.7208 10.6727 15.8605C10.6727 13.0002 12.9926 10.6805 15.8527 10.6805C18.713 10.6805 21.0327 13.0002 21.0327 15.8605C21.0327 18.7208 18.713 21.0405 15.8527 21.0405Z" fill="white"/>
<path d="M26.024 7.55581C26.024 8.58539 25.1891 9.42021 24.1593 9.42021C23.1297 9.42021 22.2949 8.58539 22.2949 7.55581C22.2949 6.52599 23.1297 5.69141 24.1593 5.69141C25.1891 5.69141 26.024 6.52599 26.024 7.55581Z" fill="white"/>
</mask>
<g mask="url(#mask0_104_1268)">
<rect x="-86.4609" y="-129.195" width="217.574" height="164.475" rx="75" fill="white"/>
</g>
</svg>
