<?xml version="1.0" encoding="utf-8"?>
<!-- Generator: Adobe Illustrator 26.0.3, SVG Export Plug-In . SVG Version: 6.00 Build 0)  -->
<svg version="1.1" xmlns="http://www.w3.org/2000/svg" xmlns:xlink="http://www.w3.org/1999/xlink" x="0px" y="0px"
	 viewBox="0 0 800 800" style="enable-background:new 0 0 800 800;" xml:space="preserve">
<style type="text/css">
	.st0{display:none;}
	.st1{display:inline;fill:#EFEFEF;}
	.st2{fill:#EDA83A;}
	.st3{fill:#FFFFFF;}
	.st4{display:inline;fill:#FFFFFF;}
	.st5{display:inline;fill:none;stroke:#FFFFFF;stroke-width:28;stroke-miterlimit:10;}
	.st6{display:inline;stroke:#000000;stroke-width:18;stroke-miterlimit:10;}
	.st7{fill:#EDA83A;stroke:#EDA83A;stroke-width:15;stroke-miterlimit:10;}
	.st8{fill:#EDA83A;stroke:#EDA83A;stroke-width:18;stroke-miterlimit:10;}
	.st9{display:inline;fill:url(#SVGID_1_);}
	.st10{display:inline;fill:url(#SVGID_00000181782165699539401030000010461651777752206466_);}
	.st11{display:inline;fill:url(#SVGID_00000154396292986069179970000015130028452315436969_);}
	.st12{display:inline;fill:url(#SVGID_00000012460443446939300420000008426036253889285550_);}
	.st13{display:inline;fill:#EDA83A;}
	.st14{display:inline;}
	.st15{stroke:#000000;stroke-width:18;stroke-miterlimit:10;}
	.st16{fill:none;stroke:#FFFFFF;stroke-width:28;stroke-miterlimit:10;}
	.st17{fill:none;stroke:#FFFFFF;stroke-width:27;stroke-miterlimit:10;}
	.st18{clip-path:url(#SVGID_00000112633138009080277680000005496600665119511971_);fill:#CAC9C9;}
	.st19{clip-path:url(#SVGID_00000112633138009080277680000005496600665119511971_);fill:#FFFFFF;}
	.st20{fill:#CAA659;}
	.st21{fill:none;stroke:#43381F;stroke-width:28;stroke-miterlimit:10;}
	.st22{clip-path:url(#SVGID_00000074443242410378586260000016138967034051782293_);fill:#CAA659;}
	.st23{clip-path:url(#SVGID_00000074443242410378586260000016138967034051782293_);fill:#FFFFFF;}
	.st24{font-family:'Cyberpunks';}
	.st25{font-size:46.3171px;}
</style>
<g id="Calque_2" class="st0">
	<rect x="867.69" y="830.56" class="st1" width="530.53" height="530.53"/>
</g>
<g id="Calque_4" class="st0">
	<path class="st2" d="M1133.48,1210.88L1041,1074.04V844.6l91.96,77.25l91.96-77.25v229.43L1133.48,1210.88z M1050,1071.28
		l83.44,123.46l82.47-123.45v-206.9l-82.96,69.39L1050,864.39V1071.28z"/>
	<path class="st2" d="M1133.08,1355.09l-22.52-33.32v-55.87l22.39,18.81l22.39-18.81v55.87L1133.08,1355.09z M1112.75,1321.1
		l20.32,30.06l20.08-30.06v-50.38l-20.2,16.9l-20.2-16.9V1321.1z"/>
	<path class="st3" d="M1630.23,1259.18l-92.49-136.84V892.9l91.96,77.25l91.96-77.25v229.43L1630.23,1259.18z M1546.74,1119.59
		l83.44,123.46l82.47-123.45V912.7l-82.96,69.39l-82.96-69.39V1119.59z"/>
	<g>
		<path class="st4" d="M4202.67,625.29l-315.08-233.3v594.8l316.91,468.88 M4204.5,1400.52l-286.07-423.17V459.83l284.24,206.39"/>
		<path class="st4" d="M4204.5,1455.66l316.91-468.88v-594.8l-315.08,233.3 M4206.32,666.22l284.24-206.39v517.51l-286.1,423.21"/>
	</g>
	<path d="M1630.23,1854.58l-92.49-136.84V1488.3l91.96,77.25l91.96-77.25v229.43L1630.23,1854.58z M1546.74,1714.98l83.44,123.46
		l82.47-123.45v-206.9l-82.96,69.39l-82.96-69.39V1714.98z"/>
</g>
<g id="Calque_5" class="st0">
	<polygon class="st5" points="3889.34,391.99 3889.34,997.19 4206.24,1455.66 4523.15,986.79 4523.15,391.99 4206.24,335.49 	"/>
</g>
<g id="Calque_1" class="st0">
	<g>
		<polygon class="st6" points="290.48,262.47 278.48,250.47 278.48,509.47 290.48,529.47 290.48,279.65 395,384.17 395,366.99 
			290.48,262.47 		"/>
		<polygon class="st6" points="517.51,262.53 517.51,262.53 412.99,367.05 412.99,384.22 517.51,279.7 517.51,402.6 517.51,529.53 
			529.51,509.53 529.51,402.6 529.51,250.53 		"/>
	</g>
	<polygon class="st7" points="400,302.81 320.22,223.03 323.98,244.53 400,320.55 476.02,244.53 479.78,223.03 	"/>
	<polygon class="st8" points="330.08,383.76 330.08,579.69 343.39,603.01 343.39,401.6 	"/>
	<polygon class="st8" points="461.56,603.01 461.56,407.07 474.87,383.76 474.87,585.16 	"/>
	<g id="XMLID_00000084514708311210393880000006684024689567688380_">
		<linearGradient id="SVGID_1_" gradientUnits="userSpaceOnUse" x1="1041.4999" y1="502.2761" x2="1327.5975" y2="216.1785">
			<stop  offset="0" style="stop-color:#FFEF26"/>
			<stop  offset="0.0595" style="stop-color:#FFE000"/>
			<stop  offset="0.1303" style="stop-color:#FFD300"/>
			<stop  offset="0.2032" style="stop-color:#FECB00"/>
			<stop  offset="0.2809" style="stop-color:#FDC800"/>
			<stop  offset="0.6685" style="stop-color:#F18F34"/>
			<stop  offset="0.8876" style="stop-color:#E95F32"/>
			<stop  offset="1" style="stop-color:#E3312D"/>
		</linearGradient>
		<polygon class="st9" points="1291.7,235.01 1184.56,342.15 1184.56,342.11 1050.03,207.59 1050.03,490.81 1080.03,540.81 
			1080.03,280.22 1184.54,384.73 1184.54,384.79 1289.06,280.27 1289.06,540.87 1319.06,490.87 1319.06,207.64 		"/>
		
			<linearGradient id="SVGID_00000183934240600588479710000014365784795677579398_" gradientUnits="userSpaceOnUse" x1="1125.1909" y1="254.6342" x2="1235.9219" y2="143.9032">
			<stop  offset="0" style="stop-color:#FFEF26"/>
			<stop  offset="0.0595" style="stop-color:#FFE000"/>
			<stop  offset="0.1303" style="stop-color:#FFD300"/>
			<stop  offset="0.2032" style="stop-color:#FECB00"/>
			<stop  offset="0.2809" style="stop-color:#FDC800"/>
			<stop  offset="0.6685" style="stop-color:#F18F34"/>
			<stop  offset="0.8876" style="stop-color:#E95F32"/>
			<stop  offset="1" style="stop-color:#E3312D"/>
		</linearGradient>
		<polygon style="display:inline;fill:url(#SVGID_00000183934240600588479710000014365784795677579398_);" points="1180.56,310 
			1263.55,227.01 1271.81,179.79 1180.56,271.05 1089.3,179.79 1097.56,227.01 		"/>
		
			<linearGradient id="SVGID_00000077285028982418504520000014979860497935542962_" gradientUnits="userSpaceOnUse" x1="1055.0542" y1="537.8656" x2="1179.5359" y2="413.3839">
			<stop  offset="0" style="stop-color:#FFEF26"/>
			<stop  offset="0.0595" style="stop-color:#FFE000"/>
			<stop  offset="0.1303" style="stop-color:#FFD300"/>
			<stop  offset="0.2032" style="stop-color:#FECB00"/>
			<stop  offset="0.2809" style="stop-color:#FDC800"/>
			<stop  offset="0.6685" style="stop-color:#F18F34"/>
			<stop  offset="0.8876" style="stop-color:#E95F32"/>
			<stop  offset="1" style="stop-color:#E3312D"/>
		</linearGradient>
		<polygon style="display:inline;fill:url(#SVGID_00000077285028982418504520000014979860497935542962_);" points="1101.64,560.93 
			1132.95,615.76 1132.95,377.46 1101.64,335.49 		"/>
		
			<linearGradient id="SVGID_00000080184374893613761580000005386562627153548731_" gradientUnits="userSpaceOnUse" x1="1170.8755" y1="546.724" x2="1326.6677" y2="390.9318">
			<stop  offset="0" style="stop-color:#FFEF26"/>
			<stop  offset="0.0595" style="stop-color:#FFE000"/>
			<stop  offset="0.1303" style="stop-color:#FFD300"/>
			<stop  offset="0.2032" style="stop-color:#FECB00"/>
			<stop  offset="0.2809" style="stop-color:#FDC800"/>
			<stop  offset="0.6685" style="stop-color:#F18F34"/>
			<stop  offset="0.8876" style="stop-color:#E95F32"/>
			<stop  offset="1" style="stop-color:#E3312D"/>
		</linearGradient>
		<polygon style="display:inline;fill:url(#SVGID_00000080184374893613761580000005386562627153548731_);" points="1233.12,608.96 
			1264.43,567 1264.43,328.69 1233.12,383.52 		"/>
	</g>
	<g>
		<polygon class="st13" points="502.15,918.07 395.01,1025.21 395.01,1025.17 260.48,890.65 260.48,1173.87 290.48,1223.87 
			290.48,963.28 394.99,1067.79 394.99,1067.86 499.51,963.34 499.51,1223.93 529.51,1173.93 529.51,890.71 		"/>
		<polygon class="st13" points="391.01,993.06 474,910.07 482.26,862.85 391.01,954.11 299.75,862.85 308.01,910.07 		"/>
		<polygon class="st13" points="312.09,1243.99 343.4,1298.82 343.4,1060.52 312.09,1018.55 		"/>
		<polygon class="st13" points="443.57,1292.03 474.88,1250.06 474.88,1011.75 443.57,1066.59 		"/>
	</g>
	<g>
		<polygon class="st13" points="1189.57,941.13 1134.84,995.86 1134.84,995.84 1066.13,927.12 1066.13,1071.79 1081.45,1097.33 
			1081.45,964.22 1134.83,1017.6 1134.83,1017.64 1188.22,964.25 1188.22,1097.36 1203.55,1071.82 1203.55,927.15 		"/>
		<polygon class="st13" points="1132.8,979.43 1175.19,937.04 1179.41,912.93 1132.8,959.54 1086.19,912.92 1090.41,937.04 		"/>
		<polygon class="st13" points="1092.49,1107.6 1108.48,1135.61 1108.48,1013.89 1092.49,992.45 		"/>
		<polygon class="st13" points="1159.64,1132.14 1175.64,1110.7 1175.64,988.98 1159.64,1016.99 		"/>
	</g>
	<g>
		<polygon class="st13" points="1146.74,1289.41 1133.41,1302.73 1133.41,1302.73 1116.68,1285.99 1116.68,1321.22 1120.41,1327.44 
			1120.41,1295.03 1133.41,1308.03 1133.41,1308.04 1146.41,1295.04 1146.41,1327.45 1150.14,1321.23 1150.14,1286 		"/>
		<polygon class="st13" points="1132.91,1298.73 1143.24,1288.41 1144.26,1282.54 1132.91,1293.89 1121.56,1282.54 1122.59,1288.41 
					"/>
		<polygon class="st13" points="1123.1,1329.94 1126.99,1336.76 1126.99,1307.12 1123.1,1301.9 		"/>
		<polygon class="st13" points="1139.45,1335.92 1143.34,1330.7 1143.34,1301.06 1139.45,1307.88 		"/>
	</g>
	<g>
		<polygon class="st4" points="1686.31,989.43 1631.59,1044.16 1631.59,1044.14 1562.87,975.43 1562.87,1120.09 1578.2,1145.63 
			1578.2,1012.52 1631.58,1065.91 1631.58,1065.94 1684.97,1012.55 1684.97,1145.66 1700.29,1120.12 1700.29,975.45 		"/>
		<polygon class="st4" points="1629.54,1027.74 1671.94,985.34 1676.16,961.23 1629.54,1007.84 1582.93,961.23 1587.15,985.34 		"/>
		<polygon class="st4" points="1589.23,1155.91 1605.23,1183.92 1605.23,1062.19 1589.23,1040.76 		"/>
		<polygon class="st4" points="1656.39,1180.44 1672.38,1159.01 1672.38,1037.28 1656.39,1065.29 		"/>
	</g>
	<g>
		<polygon class="st4" points="2504.53,676.58 2361.77,819.34 2361.77,819.29 2182.53,640.04 2182.53,1017.42 2222.5,1084.05 
			2222.5,736.82 2361.75,876.07 2361.75,876.16 2501.02,736.89 2501.02,1084.12 2541,1017.5 2541,640.12 		"/>
		<polygon class="st4" points="2356.44,776.5 2467.03,665.92 2478.03,603.01 2356.44,724.6 2234.85,603.01 2245.86,665.92 		"/>
		<polygon class="st4" points="2251.29,1110.85 2293.01,1183.92 2293.01,866.39 2251.29,810.46 		"/>
		<polygon class="st4" points="2426.48,1174.86 2468.2,1118.94 2468.2,801.41 2426.48,874.47 		"/>
	</g>
	<g>
		<polygon class="st14" points="1686.31,1584.83 1631.59,1639.56 1631.59,1639.54 1562.87,1570.82 1562.87,1715.49 1578.2,1741.03 
			1578.2,1607.92 1631.58,1661.3 1631.58,1661.34 1684.97,1607.95 1684.97,1741.06 1700.29,1715.52 1700.29,1570.85 		"/>
		<polygon class="st14" points="1629.54,1623.13 1671.94,1580.74 1676.16,1556.63 1629.54,1603.24 1582.93,1556.63 1587.15,1580.74 
					"/>
		<polygon class="st14" points="1589.23,1751.3 1605.23,1779.31 1605.23,1657.59 1589.23,1636.15 		"/>
		<polygon class="st14" points="1656.39,1775.84 1672.38,1754.4 1672.38,1632.68 1656.39,1660.69 		"/>
	</g>
	<path class="st15" d="M517.51,407.91"/>
	<path class="st15" d="M529.51,407.91"/>
	<path class="st3" d="M2414.66,551.81l-25.59,15.59l-30.78-30.78l-31.99,31.99l-26.78-16.78v32.2c0,11.94,4.74,23.4,13.19,31.85
		l43.79,43.79l44.98-44.98c8.45-8.45,13.2-19.91,13.19-31.86L2414.66,551.81z"/>
	<g>
		<polygon class="st4" points="3154.81,676.58 3012.04,819.34 3012.04,819.29 2832.8,640.04 2832.8,1017.42 2872.77,1084.05 
			2872.77,736.82 3012.03,876.07 3012.03,876.16 3151.3,736.89 3151.3,1084.12 3191.27,1017.5 3191.27,640.12 		"/>
		<polygon class="st4" points="3006.72,776.5 3117.3,665.92 3128.31,603.01 3006.72,724.6 2885.12,603.01 2896.13,665.92 		"/>
		<polygon class="st4" points="2901.56,1110.85 2943.28,1183.92 2943.28,866.39 2901.56,810.46 		"/>
		<polygon class="st4" points="3076.75,1174.86 3118.47,1118.94 3118.47,801.41 3076.75,874.47 		"/>
	</g>
	<g>
		<polyline class="st4" points="4206.25,795.27 4206.25,795.21 3957.01,615.97 3957.01,953.35 3996.98,1019.97 3996.98,712.74 
			4206.24,851.99 4206.24,852.09 4415.51,712.82 4415.51,1020.04 4455.48,953.42 4455.48,616.04 		"/>
		<polygon class="st4" points="4200.93,752.43 4359.21,629.2 4368.86,574.06 4200.93,706.94 4032.99,574.06 4042.64,629.2 		"/>
		<polygon class="st4" points="4025.77,1046.78 4067.49,1119.84 4067.49,842.31 4025.77,786.39 		"/>
		<polygon class="st4" points="4340.96,1110.78 4382.68,1054.86 4382.68,777.33 4340.96,850.39 		"/>
	</g>
	<g>
		<polyline class="st4" points="5117.48,810.4 5117.48,810.34 4868.23,631.1 4868.23,968.48 4908.21,1035.1 4908.21,727.88 
			5117.46,867.13 5117.46,867.22 5326.73,727.95 5326.73,1035.18 5366.7,968.55 5366.7,631.17 		"/>
		<polygon class="st4" points="5112.15,767.56 5270.43,644.33 5280.08,589.19 5112.15,722.07 4944.21,589.19 4953.86,644.33 		"/>
		<polygon class="st4" points="4936.99,1061.91 4978.71,1134.97 4978.71,857.44 4936.99,801.52 		"/>
		<polygon class="st4" points="5252.18,1125.91 5293.9,1069.99 5293.9,792.46 5252.18,865.53 		"/>
	</g>
	<g>
		<polyline class="st4" points="5117.48,1633.73 5117.48,1633.68 4868.23,1454.44 4868.23,1791.82 4908.21,1858.44 4908.21,1551.21 
			5117.46,1690.46 5117.46,1690.55 5326.73,1551.28 5326.73,1858.51 5366.7,1791.89 5366.7,1454.51 		"/>
		<polygon class="st4" points="5112.15,1590.89 5270.43,1467.67 5280.08,1412.53 5112.15,1545.4 4944.21,1412.53 4953.86,1467.67 		
			"/>
		<polygon class="st4" points="4936.99,1885.24 4978.71,1958.31 4978.71,1680.78 4936.99,1624.85 		"/>
		<polygon class="st4" points="5252.18,1949.25 5293.9,1893.33 5293.9,1615.8 5252.18,1688.86 		"/>
	</g>
	<g>
		<polygon class="st4" points="3154.81,1637.7 3012.04,1780.46 3012.04,1780.41 2832.8,1601.16 2832.8,1978.54 2872.77,2045.16 
			2872.77,1697.94 3012.03,1837.19 3012.03,1837.28 3151.3,1698.01 3151.3,2045.24 3191.27,1978.61 3191.27,1601.24 		"/>
		<polygon class="st4" points="3006.72,1737.62 3117.3,1627.03 3128.31,1564.12 3006.72,1685.72 2885.12,1564.12 2896.13,1627.03 		
			"/>
		<polygon class="st4" points="2901.56,2071.97 2943.28,2145.03 2943.28,1827.5 2901.56,1771.58 		"/>
		<polygon class="st4" points="3076.75,2135.98 3118.47,2080.05 3118.47,1762.52 3076.75,1835.59 		"/>
	</g>
	<path class="st2" d="M3064.94,551.81l-25.59,15.59l-30.78-30.78l-31.99,31.99l-26.78-16.78v32.2c0,11.94,4.74,23.4,13.19,31.85
		l43.79,43.79l44.98-44.98c8.45-8.45,13.2-19.91,13.19-31.86L3064.94,551.81z"/>
	<path class="st2" d="M5169.71,537.06l-25.59,15.59l-30.78-30.78l-31.99,31.99l-26.78-16.78v32.2c0,11.94,4.75,23.4,13.19,31.85
		l43.79,43.79l44.98-44.98c8.45-8.45,13.19-19.91,13.19-31.86L5169.71,537.06z"/>
	<polygon class="st3" points="3007.48,1451.53 3023.59,1484.16 3059.6,1489.39 3033.54,1514.79 3039.69,1550.66 3007.48,1533.72 
		2975.27,1550.66 2981.42,1514.79 2955.37,1489.39 2991.38,1484.16 	"/>
	<g>
		<polygon class="st4" points="2504.53,1637.7 2361.77,1780.46 2361.77,1780.41 2182.53,1601.16 2182.53,1978.54 2222.5,2045.16 
			2222.5,1697.94 2361.75,1837.19 2361.75,1837.28 2501.02,1698.01 2501.02,2045.24 2541,1978.61 2541,1601.24 		"/>
		<polygon class="st4" points="2356.44,1737.62 2467.03,1627.03 2478.03,1564.12 2356.44,1685.72 2234.85,1564.12 2245.86,1627.03 
					"/>
		<polygon class="st4" points="2251.29,2071.97 2293.01,2145.03 2293.01,1827.5 2251.29,1771.58 		"/>
		<polygon class="st4" points="2426.48,2135.98 2468.2,2080.05 2468.2,1762.52 2426.48,1835.59 		"/>
	</g>
	<polygon class="st2" points="2357.21,1451.53 2373.31,1484.16 2409.32,1489.39 2383.26,1514.79 2389.42,1550.66 2357.21,1533.72 
		2325,1550.66 2331.15,1514.79 2305.09,1489.39 2341.1,1484.16 	"/>
	<polygon class="st2" points="5112.15,1336.76 5134.58,1382.22 5184.75,1389.51 5148.45,1424.9 5157.02,1474.87 5112.15,1451.28 
		5067.27,1474.87 5075.84,1424.9 5039.54,1389.51 5089.71,1382.22 	"/>
</g>
<g id="blason" class="st0">
	<g id="Calque_7">
	</g>
	<g>
		<polyline class="st4" points="6176.13,795.27 6176.13,795.21 5926.89,615.97 5926.89,953.35 5966.86,1019.97 5966.86,712.74 
			6176.11,851.99 6176.11,852.09 6385.38,712.82 6385.38,1020.04 6425.36,953.42 6425.36,616.04 		"/>
		<polygon class="st4" points="6176.11,752.43 6344.4,629.2 6354.05,574.06 6176.11,706.94 5996.18,574.06 6005.83,629.2 		"/>
		<polygon class="st4" points="5995.65,1046.78 6037.37,1119.84 6037.37,842.31 5995.65,786.39 		"/>
		<polygon class="st4" points="6310.84,1110.78 6352.56,1054.86 6352.56,777.33 6310.84,850.39 		"/>
	</g>
	<g>
		<polyline class="st4" points="7123.5,795.27 7123.5,795.21 6874.26,615.97 6874.26,953.35 6914.23,1019.97 6914.23,712.74 
			7123.48,851.99 7123.48,852.09 7332.75,712.82 7332.75,1020.04 7372.73,953.42 7372.73,616.04 		"/>
		<polygon class="st4" points="7123.48,752.43 7291.77,629.2 7301.42,574.06 7123.48,706.94 6943.55,574.06 6953.2,629.2 		"/>
		<polygon class="st4" points="6943.02,1046.78 6984.74,1119.84 6984.74,842.31 6943.02,786.39 		"/>
		<polygon class="st4" points="7258.21,1110.78 7299.93,1054.86 7299.93,777.33 7258.21,850.39 		"/>
	</g>
	<g>
		<polyline class="st4" points="8080.09,795.27 8080.09,795.21 7830.84,615.97 7830.84,953.35 7870.82,1019.97 7870.82,712.74 
			8080.07,851.99 8080.07,852.09 8289.34,712.82 8289.34,1020.04 8329.31,953.42 8329.31,616.04 		"/>
		<polygon class="st4" points="8080.07,752.43 8248.35,629.2 8258,574.06 8080.07,706.94 7900.14,574.06 7909.79,629.2 		"/>
		<polygon class="st4" points="7899.61,1046.78 7941.33,1119.84 7941.33,842.31 7899.61,786.39 		"/>
		<polygon class="st4" points="8214.79,1110.78 8256.51,1054.86 8256.51,777.33 8214.79,850.39 		"/>
	</g>
	<polygon class="st16" points="5859.22,391.99 5859.22,997.19 6176.12,1455.66 6493.03,986.79 6493.03,391.99 6176.12,335.49 	"/>
	<path class="st16" d="M6805.58,391.99v605.2l316.91,458.47l316.91-468.88v-594.8l-66.96,41.67c-153.03,95.22-346.87,95.22-499.89,0
		L6805.58,391.99z"/>
	<circle class="st17" cx="8080.08" cy="828.93" r="410.4"/>
</g>
<g id="Calque_8" class="st0">
	<g class="st14">
		<defs>
			<path id="SVGID_00000137833572633135970220000004550366756874864044_" d="M1290.95,71.78l-25.59,15.59l-30.78-30.78l-31.99,31.99
				l-26.78-16.78V104c0,11.94,4.74,23.4,13.19,31.85l43.79,43.79l44.98-44.98c8.45-8.45,13.2-19.91,13.19-31.86L1290.95,71.78z"/>
		</defs>
		<clipPath id="SVGID_00000068644786007013164330000002156210563117516454_">
			<use xlink:href="#SVGID_00000137833572633135970220000004550366756874864044_"  style="overflow:visible;"/>
		</clipPath>
		<polygon style="clip-path:url(#SVGID_00000068644786007013164330000002156210563117516454_);fill:#CAC9C9;" points="1228.62,-118 
			1537.21,-64.95 1537.21,518.63 1223.3,976.4 		"/>
		<polygon style="clip-path:url(#SVGID_00000068644786007013164330000002156210563117516454_);fill:#FFFFFF;" points="
			1232.76,-118.06 1232.76,990.32 915.86,543.83 915.86,-72.52 		"/>
	</g>
	<g class="st14">
		<polygon class="st3" points="2065.98,155.58 2220.59,182.16 2220.59,474.56 2063.31,703.92 		"/>
		<polygon class="st20" points="2065.98,155.58 2065.98,710.93 1907.2,487.21 1907.2,178.39 		"/>
		<g>
			<polyline class="st3" points="2065.98,380.04 2065.98,380.01 1941.1,290.2 1941.1,459.25 1961.13,492.63 1961.13,338.69 
				2065.98,408.46 2065.98,408.51 2170.83,338.73 2170.83,492.66 2190.86,459.28 2190.86,290.24 			"/>
			<polygon class="st3" points="2065.98,358.58 2145.28,296.84 2150.12,269.21 2065.98,335.78 1981.83,269.21 1986.67,296.84 			"/>
			<polygon class="st3" points="1975.55,506.06 1996.46,542.67 1996.46,403.61 1975.55,375.59 			"/>
			<polygon class="st3" points="2133.48,538.13 2154.38,510.11 2154.38,371.05 2133.48,407.66 			"/>
		</g>
		<g>
			<polyline class="st20" points="2065.98,380.01 2065.98,380.04 2190.86,290.24 2190.86,459.28 2170.83,492.66 2170.83,338.73 
				2065.98,408.51 2065.98,408.46 			"/>
			<polyline class="st20" points="2065.98,358.58 2145.28,296.84 2150.12,269.21 2065.98,335.78 			"/>
			<polygon class="st20" points="2133.48,538.13 2154.38,510.11 2154.38,371.05 2133.48,407.66 			"/>
		</g>
		<polygon class="st21" points="1907.2,177.98 1907.2,481.21 2065.98,710.93 2224.76,476 2224.76,177.98 2065.98,149.67 		"/>
		<g>
			<defs>
				<path id="SVGID_00000170983512925799287650000018232148907287505553_" d="M2095.15,250.67l-12.82,7.81l-15.42-15.42
					l-16.03,16.03l-13.42-8.41v16.13c0,5.98,2.38,11.72,6.61,15.96l21.94,21.94l22.54-22.54c4.23-4.23,6.61-9.98,6.61-15.96
					L2095.15,250.67z"/>
			</defs>
			<clipPath id="SVGID_00000085932697342897676870000008064695478753651389_">
				<use xlink:href="#SVGID_00000170983512925799287650000018232148907287505553_"  style="overflow:visible;"/>
			</clipPath>
			<polygon style="clip-path:url(#SVGID_00000085932697342897676870000008064695478753651389_);fill:#CAA659;" points="
				2063.92,155.58 2218.54,182.16 2218.54,474.56 2061.26,703.92 			"/>
			<polygon style="clip-path:url(#SVGID_00000085932697342897676870000008064695478753651389_);fill:#FFFFFF;" points="2066,155.54 
				2066,710.9 1907.21,487.18 1907.21,178.36 			"/>
		</g>
	</g>
</g>
<g id="Calque_3" class="st0">
	<text transform="matrix(1 0 0 1 1656.2383 50.6465)" class="st4 st25" style="font-family:'NavadaDemo';">MetaManager</text>
	
		<text transform="matrix(1 0 0 1 1656.2383 121.1307)" class="st4 st25" style="font-family:'NavadaOutlineItalicDemo-OutlineItalic';">MetaManager</text>
	<text transform="matrix(1 0 0 1 1656.6172 189.7202)" class="st4 st25" style="font-family:'aAtmospheric';">MetaManager</text>
	<g class="st14">
		<text transform="matrix(1 0 0 1 1021.6025 1251.8542)" class="st2" style="font-family:'aAtmospheric'; font-size:22.9988px;">MetaManager</text>
	</g>
	<g class="st14">
		<text transform="matrix(1 0 0 1 1518.3486 1303.6846)" class="st3" style="font-family:'aAtmospheric'; font-size:22.9988px;">MetaManager</text>
	</g>
	<g class="st14">
		<text transform="matrix(1 0 0 1 1518.3486 1899.082)" style="font-family:'aAtmospheric'; font-size:22.9988px;">MetaManager</text>
	</g>
	<text transform="matrix(1 0 0 1 1656.6172 250.3517)" class="st4 st24 st25">MetaManager</text>
	<text transform="matrix(1 0 0 1 1053.0725 704.8786)" class="st13 st24 st25">MetaManager</text>
	<text transform="matrix(1 0 0 1 245.3326 704.8786)" class="st13 st24 st25">MetaManager</text>
	<text transform="matrix(1 0 0 1 1656.6172 311.5317)" class="st4 st25" style="font-family:'RaveKing';">MetaManager</text>
</g>
<g id="Calque_9">
	<g>
		<polyline class="st3" points="400.01,389.75 400.01,389.7 190.93,239.35 190.93,522.36 224.46,578.24 224.46,320.53 
			399.99,437.34 399.99,437.41 575.54,320.59 575.54,578.3 609.07,522.42 609.07,239.41 		"/>
		<polygon class="st3" points="399.99,353.81 541.16,250.45 549.25,204.2 399.99,315.66 249.06,204.2 257.15,250.45 		"/>
		<polygon class="st3" points="248.61,600.73 283.61,662.01 283.61,429.21 248.61,382.3 		"/>
		<polygon class="st3" points="513,654.42 548,607.51 548,374.71 513,435.99 		"/>
	</g>
	<g>
		<path class="st3" d="M211.2,179.15c-4.63-5.46-6.95-8.19-11.58-13.65c7.82,1.92,11.66,3.01,19.18,5.43
			c1.76-1.52,2.65-2.27,4.43-3.75c-0.85-8.44-1.16-12.7-1.52-21.31c4.28,6.13,6.42,9.2,10.7,15.33c2.71-2.08,4.07-3.09,6.83-5.08
			c-5.95-9.08-11.91-18.15-17.86-27.23c-3.06,2.2-4.57,3.33-7.58,5.64c0.33,9.06,0.72,18.07,1.63,27.09
			c-8.55-2.87-17.02-5.44-25.71-7.81c-2.3,3.28-3.43,4.94-5.64,8.3c6.94,7.7,13.87,15.4,20.81,23.1
			C207.38,182.74,208.64,181.53,211.2,179.15z"/>
		<path class="st3" d="M271.95,135.78c-0.42-2.93-0.62-4.39-1-7.33c-7.75,3.98-15.16,8.49-22.58,13.09
			c-1.19-2.03-1.78-3.05-2.97-5.08c7.67-4.92,11.58-7.22,19.5-11.48c-1.22-2.5-1.84-3.75-3.06-6.25
			c-6.78,3.61-13.48,7.55-19.94,11.74c-1.2-2.05-1.8-3.07-2.99-5.12c7.06-4.57,14.4-8.87,21.82-12.76
			c-0.35-2.96-0.52-4.45-0.83-7.42c-11.08,5.99-21.74,12.39-32.28,19.36c5.75,9.22,11.49,18.44,17.24,27.66
			C253.59,146.2,262.64,140.72,271.95,135.78z"/>
		<path class="st3" d="M298.66,95.68c0.01-2.98,0.03-4.47,0.09-7.46c-12.53,4.4-24.75,9.79-36.64,15.8
			c1.18,2.53,1.76,3.79,2.94,6.32c4.95-2.53,7.45-3.73,12.48-6.01c3.29,7.95,6.59,15.91,9.88,23.86c3-1.36,4.5-2.01,7.52-3.28
			c-3.08-8.05-6.15-16.1-9.23-24.15C290.85,98.6,293.44,97.58,298.66,95.68z"/>
		<path class="st3" d="M313.7,91.83c4.24,4.41,6.31,6.65,10.33,11.2c-3.8,1.07-5.69,1.63-9.45,2.84c-0.43,2.95-0.63,4.42-1.01,7.37
			c6.1-2.02,9.17-2.94,15.34-4.59c1.26,1.49,1.89,2.24,3.13,3.74c3.3-0.86,4.96-1.26,8.28-2.02c-7.98-9.85-16.22-19.25-24.9-28.43
			c-3.24,1.83-4.85,2.77-8.03,4.69c-2.51,11.89-4.61,23.74-6.31,35.79c3.21-1.25,4.82-1.85,8.06-3
			C310.46,110.14,311.96,101.03,313.7,91.83z"/>
		<path class="st3" d="M384.26,104.03c-0.63-10.99-1.26-21.98-1.89-32.97c-3.56,0.22-5.33,0.36-8.89,0.68
			c-4.08,7.79-7.89,15.84-11.33,23.95c-5.62-7.13-11.33-14-17.29-20.82c-3.38,1.5-5.06,2.27-8.38,3.87
			c2.07,10.36,4.14,20.72,6.21,31.08c3.15-0.69,4.74-1.01,7.9-1.6c-1.24-7.19-1.85-10.78-3.09-17.97
			c5.45,5.96,8.07,9.01,13.07,15.21c2.14-0.32,3.21-0.47,5.36-0.75c3.24-7.64,4.98-11.44,8.72-18.98
			c0.64,7.56,0.95,11.34,1.59,18.91C379.46,104.36,381.06,104.23,384.26,104.03z"/>
		<path class="st3" d="M427.24,104.72c-4.76-11.88-9.89-23.44-15.49-34.92c-3.6,0.73-5.38,1.12-8.93,1.96
			c-5.76,10.55-11.11,21.19-16.13,32.14c3.38-0.18,5.07-0.24,8.45-0.32c3.88-8.43,7.9-16.64,12.16-24.87
			c2.75,5.54,4.07,8.32,6.58,13.92c-3.9-0.17-5.85-0.22-9.76-0.26c-1.25,2.68-1.86,4.02-3.05,6.71c6.34-0.01,9.5,0.08,15.83,0.43
			c0.77,1.82,1.15,2.73,1.9,4.55C422.18,104.27,423.87,104.4,427.24,104.72z"/>
		<path class="st3" d="M440.28,84.29c5.21,8.07,10.07,16.11,14.79,24.5c3.16,0.63,4.74,0.97,7.89,1.69
			c2.26-10.75,4.52-21.5,6.78-32.26c-3.5-0.8-5.25-1.18-8.76-1.88c-1.5,8.23-2.25,12.34-3.75,20.57
			c-4.79-8.46-9.96-16.67-15.49-24.62c-3.65,0.37-5.47,0.59-9.08,1.07c-1,10.53-2,21.06-2.99,31.59c3.2,0.33,4.79,0.52,7.98,0.94
			C438.7,97.26,439.23,92.93,440.28,84.29z"/>
		<path class="st3" d="M473.61,113.15c5.96-7,12-13.74,18.28-20.43c1.23,6.12,1.78,9.18,2.75,15.29c-3.74-1.29-5.62-1.91-9.4-3.07
			c-1.91,2.22-2.85,3.33-4.71,5.58c6.14,1.81,9.2,2.81,15.25,4.98c0.28,1.97,0.41,2.96,0.66,4.92c3.23,1.19,4.83,1.81,8.03,3.1
			c-1.53-12.82-3.5-25.43-5.94-38.09c-3.68-0.34-5.52-0.47-9.18-0.69c-8.34,8.49-16.29,17.19-24.01,26.3
			C468.66,111.83,470.31,112.25,473.61,113.15z"/>
		<path class="st3" d="M517.79,129.3c8.04,3.74,12,5.78,19.8,10.2c3.06-5.93,4.59-8.9,7.66-14.83c-3.45-0.98-5.17-1.45-8.61-2.31
			c-1.33,2.75-1.99,4.13-3.31,6.88c-4.72-2.49-7.1-3.68-11.9-5.93c-4.21-1.97-4.6-7.43-2.82-11.87c1.73-4.32,5.65-7.61,10.25-5.46
			c6.96,3.24,13.87,6.81,20.56,10.63c0.43-2.95,0.63-4.43,1.01-7.4c-7.81-4.34-11.78-6.36-19.8-10.1
			c-8.38-4.02-17.39,0.54-20.6,9.26C507.03,116.49,509.84,125.76,517.79,129.3z"/>
		<path class="st3" d="M569.63,160.65c2.31-1.71,3.47-2.56,5.81-4.24c-7.13-5.34-14.25-10.37-21.67-15.26
			c1.18-2.04,1.78-3.05,2.96-5.09c6.43,4.06,12.76,8.46,18.84,13.08c1.56-2.28,2.35-3.42,3.91-5.71
			c-6.21-4.72-12.69-9.21-19.26-13.37c1.19-2.05,1.79-3.08,2.98-5.13c7.18,4.54,14.26,9.48,21.02,14.68
			c2.37-1.67,3.57-2.49,5.97-4.12c-10.02-7.83-20.58-14.92-31.41-21.44c-5.21,9.57-10.42,19.13-15.62,28.7
			C552.29,148.19,561.13,154.17,569.63,160.65z"/>
		<path class="st3" d="M614.93,156.73c-5.85-5.6-11.98-11.01-18.25-16.1c-2.45,1.56-3.66,2.36-6.08,3.95
			c6.84,5.45,13.3,11.32,19.75,17.27c2.12,2.02,1.79,4.56,0.41,6.12c-1.41,1.59-3.86,2.15-5.89,0.22
			c-4.8-4.56-7.25-6.76-12.22-11.01c1.41-1.81,2.11-2.71,3.51-4.52c-3.34-1.76-5.02-2.6-8.38-4.23c-4.91,6.72-7.37,10.08-12.28,16.8
			c2.67,2.15,4,3.25,6.63,5.49c2.51-3.24,3.77-4.85,6.29-8.09c3.63,3.1,5.42,4.69,8.96,7.96c-0.22,5.37-0.38,8.03-0.8,13.33
			c2.96,2.89,4.42,4.37,7.31,7.39c0.45-5.82,0.61-8.75,0.8-14.65c5.09,2.79,9.92,1.75,12.84-1.33
			C621.38,171.25,621.85,163.31,614.93,156.73z"/>
		<path class="st3" d="M668.68,227.73c-1.84,8.18-2.88,12.2-5.19,20.08c1.45,1.84,2.17,2.77,3.58,4.64
			c8.06-0.89,12.13-1.21,20.36-1.59c-5.86,4.48-8.78,6.72-14.64,11.2c1.99,2.84,2.95,4.27,4.85,7.15
			c8.67-6.23,17.34-12.46,26.01-18.7c-2.1-3.2-3.18-4.79-5.38-7.94c-8.65,0.35-17.26,0.75-25.88,1.7c2.74-8.95,5.2-17.82,7.46-26.91
			c-3.14-2.41-4.72-3.59-7.93-5.9c-7.35,7.26-14.71,14.52-22.06,21.78c2.36,2.62,3.52,3.94,5.79,6.62
			C660.85,235,663.46,232.58,668.68,227.73z"/>
		<path class="st3" d="M697.07,303.45c2.8-0.44,4.2-0.65,7-1.05c-3.8-8.11-8.11-15.87-12.5-23.64c1.94-1.24,2.91-1.87,4.86-3.11
			c4.7,8.03,6.9,12.12,10.97,20.42c2.39-1.28,3.58-1.92,5.97-3.21c-3.45-7.09-7.22-14.11-11.21-20.88c1.96-1.25,2.93-1.88,4.89-3.13
			c4.37,7.39,8.47,15.08,12.19,22.84c2.83-0.37,4.25-0.54,7.09-0.87c-5.73-11.6-11.84-22.76-18.49-33.8
			c-8.81,6.02-17.62,12.03-26.43,18.05C687.12,284.23,692.35,293.71,697.07,303.45z"/>
		<path class="st3" d="M727.12,309.29c-7.6,3.45-15.2,6.9-22.79,10.35c1.3,3.14,1.92,4.71,3.13,7.88
			c7.69-3.22,15.38-6.44,23.07-9.66c2.06,5.39,3.03,8.11,4.85,13.57c2.85,0.01,4.27,0.03,7.13,0.09
			c-4.2-13.11-9.35-25.91-15.09-38.36c-2.41,1.23-3.62,1.85-6.03,3.08C723.79,301.41,724.94,304.02,727.12,309.29z"/>
		<path class="st3" d="M712.7,342.39c8.85,1.38,17.56,2.95,26.34,4.77c-4.21,4.44-6.35,6.6-10.69,10.81
			c-1.02-3.97-1.56-5.95-2.71-9.9c-2.82-0.45-4.22-0.66-7.04-1.05c1.93,6.38,2.8,9.6,4.39,16.06c-1.42,1.32-2.14,1.98-3.57,3.27
			c0.82,3.46,1.21,5.19,1.93,8.67c9.4-8.35,18.39-16.98,27.16-26.06c-1.75-3.4-2.65-5.08-4.48-8.4c-11.36-2.63-22.68-4.83-34.19-6.6
			C711.03,337.32,711.61,339,712.7,342.39z"/>
		<path class="st3" d="M723.39,385.8c6.87-1.3,10.3-1.94,17.17-3.24c-5.7,5.71-8.61,8.44-14.53,13.69c0.31,2.24,0.45,3.36,0.71,5.61
			c7.3,3.39,10.93,5.22,18.13,9.13c-7.22,0.67-10.84,1-18.06,1.66c0.28,3.35,0.4,5.03,0.59,8.38c10.5-0.66,20.99-1.31,31.49-1.98
			c-0.21-3.72-0.34-5.58-0.65-9.3c-7.44-4.27-15.13-8.26-22.88-11.86c6.81-5.88,13.37-11.86,19.89-18.1
			c-1.43-3.54-2.17-5.29-3.69-8.77c-9.9,2.17-19.79,4.34-29.69,6.5C722.51,380.83,722.82,382.48,723.39,385.8z"/>
		<path class="st3" d="M727.37,457.2c-0.21,3.54-0.33,5.3-0.64,8.83c11.35-4.98,22.39-10.35,33.35-16.21
			c-0.7-3.76-1.07-5.63-1.87-9.35c-10.07-6.03-20.24-11.63-30.7-16.89c0.17,3.54,0.23,5.31,0.31,8.85
			c8.05,4.06,15.9,8.27,23.75,12.73c-5.29,2.88-7.95,4.26-13.3,6.89c0.16-4.08,0.21-6.13,0.25-10.21c-2.56-1.31-3.84-1.94-6.41-3.19
			c0.01,6.63-0.08,9.95-0.41,16.58C729.98,456.02,729.11,456.42,727.37,457.2z"/>
		<path class="st3" d="M756.68,471.7c-10.06-1.04-20.12-2.09-30.18-3.13c-0.32,3.35-0.5,5.02-0.9,8.35
			c8.26,1.1,12.39,1.65,20.65,2.76c-7.71,5.45-15.39,10.54-23.41,15.48c-0.6,3.31-0.92,4.96-1.61,8.26
			c10.27,2.36,20.54,4.74,30.81,7.1c0.77-3.66,1.12-5.49,1.79-9.17c-7.86-1.57-11.79-2.35-19.65-3.93
			c8.08-5.01,15.93-10.43,23.52-16.22C757.35,477.39,757.15,475.49,756.68,471.7z"/>
		<path class="st3" d="M720.7,505.92c-0.76,3.47-1.16,5.2-2.01,8.65c6.68,6.24,13.13,12.56,19.51,19.14
			c-5.85,1.28-8.77,1.86-14.61,2.88c1.24-3.92,1.82-5.89,2.93-9.84c-2.12-2-3.18-2.98-5.33-4.93c-1.73,6.43-2.68,9.63-4.76,15.97
			c-1.88,0.29-2.82,0.43-4.7,0.69c-1.13,3.38-1.72,5.06-2.96,8.41c12.24-1.6,24.29-3.67,36.39-6.22c0.32-3.85,0.45-5.78,0.66-9.61
			C737.71,522.33,729.4,514.01,720.7,505.92z"/>
		<path class="st3" d="M723.24,552.69c-7.74-3.12-16.6-0.19-19.99,8.13c-3.57,8.41-5.52,12.57-9.74,20.73
			c5.67,3.21,8.5,4.81,14.17,8.02c0.94-3.61,1.38-5.41,2.21-9.01c-2.63-1.39-3.94-2.08-6.57-3.47c2.38-4.94,3.51-7.43,5.67-12.46
			c1.89-4.4,7.1-4.82,11.33-2.96c4.12,1.82,7.27,5.92,5.21,10.73c-3.09,7.29-6.5,14.52-10.15,21.52c2.82,0.45,4.24,0.66,7.07,1.06
			c4.15-8.18,6.08-12.33,9.64-20.73C735.93,565.47,731.57,556.04,723.24,552.69z"/>
		<path class="st3" d="M673.31,615.09c1.64,2.42,2.45,3.64,4.05,6.09c5.1-7.46,9.9-14.92,14.58-22.68c1.95,1.24,2.92,1.86,4.86,3.1
			c-3.88,6.73-8.08,13.36-12.49,19.72c2.18,1.64,3.27,2.46,5.45,4.1c4.51-6.51,8.8-13.28,12.77-20.16c1.96,1.25,2.94,1.87,4.9,3.12
			c-4.34,7.52-9.06,14.92-14.02,22c1.59,2.48,2.38,3.74,3.94,6.25c7.48-10.49,14.25-21.54,20.48-32.88
			c-9.14-5.45-18.28-10.9-27.42-16.35C685.21,596.94,679.5,606.2,673.31,615.09z"/>
		<path class="st3" d="M672.15,657.72c-1.93,2.22-4.36,1.88-5.84,0.43c-1.52-1.48-2.05-4.04-0.21-6.17
			c4.36-5.03,6.46-7.59,10.52-12.79c1.73,1.47,2.59,2.21,4.32,3.68c1.68-3.5,2.49-5.25,4.04-8.77c-6.42-5.15-9.63-7.72-16.04-12.86
			c-2.05,2.8-3.1,4.19-5.24,6.94c3.09,2.63,4.64,3.95,7.73,6.58c-2.96,3.8-4.48,5.67-7.6,9.38c-5.13-0.23-7.67-0.39-12.73-0.83
			c-2.76,3.1-4.17,4.63-7.06,7.65c5.55,0.47,8.36,0.64,14,0.84c-2.67,5.33-1.67,10.38,1.27,13.44c3.9,4.05,11.47,4.54,17.76-2.71
			c5.35-6.12,10.52-12.54,15.38-19.11c-1.49-2.56-2.25-3.83-3.78-6.36C683.44,644.21,677.84,650.97,672.15,657.72z"/>
		<path class="st3" d="M131.32,650.18c1.84-8.18,2.88-12.2,5.19-20.08c-1.45-1.84-2.17-2.77-3.58-4.64
			c-8.06,0.89-12.13,1.21-20.36,1.59c5.86-4.48,8.78-6.72,14.64-11.2c-1.98-2.84-2.95-4.27-4.85-7.15
			c-8.67,6.23-17.34,12.46-26.01,18.7c2.1,3.2,3.18,4.79,5.38,7.94c8.65-0.35,17.26-0.75,25.88-1.7c-2.74,8.95-5.2,17.82-7.46,26.91
			c3.14,2.41,4.72,3.59,7.93,5.9c7.35-7.26,14.71-14.52,22.06-21.78c-2.36-2.62-3.52-3.94-5.79-6.61
			C139.15,642.91,136.54,645.33,131.32,650.18z"/>
		<path class="st3" d="M102.93,574.46c-2.8,0.44-4.2,0.65-7,1.05c3.8,8.11,8.11,15.87,12.5,23.64c-1.94,1.24-2.91,1.87-4.86,3.11
			c-4.7-8.03-6.9-12.12-10.97-20.42c-2.39,1.28-3.58,1.92-5.97,3.21c3.45,7.09,7.22,14.11,11.21,20.88
			c-1.96,1.25-2.93,1.88-4.89,3.13c-4.37-7.39-8.47-15.08-12.19-22.84c-2.83,0.37-4.25,0.54-7.09,0.87
			c5.73,11.6,11.84,22.76,18.49,33.8c8.81-6.02,17.62-12.03,26.42-18.05C112.88,593.68,107.65,584.2,102.93,574.46z"/>
		<path class="st3" d="M72.88,568.62c7.6-3.45,15.2-6.9,22.79-10.35c-1.3-3.14-1.92-4.71-3.13-7.88
			c-7.69,3.22-15.38,6.44-23.07,9.66c-2.06-5.39-3.03-8.11-4.85-13.57c-2.85-0.01-4.27-0.03-7.13-0.09
			c4.2,13.11,9.35,25.91,15.09,38.36c2.41-1.23,3.62-1.85,6.03-3.08C76.21,576.5,75.06,573.89,72.88,568.62z"/>
		<path class="st3" d="M87.3,535.52c-8.85-1.38-17.56-2.95-26.34-4.77c4.21-4.44,6.35-6.6,10.69-10.81c1.02,3.97,1.56,5.95,2.71,9.9
			c2.82,0.45,4.22,0.66,7.04,1.05c-1.93-6.38-2.8-9.6-4.39-16.06c1.42-1.32,2.14-1.98,3.57-3.27c-0.82-3.46-1.21-5.19-1.93-8.67
			c-9.4,8.35-18.39,16.98-27.16,26.06c1.75,3.4,2.65,5.08,4.48,8.4c11.36,2.63,22.68,4.83,34.19,6.6
			C88.97,540.6,88.39,538.91,87.3,535.52z"/>
		<path class="st3" d="M76.61,492.11c-6.87,1.3-10.3,1.94-17.17,3.24c5.7-5.71,8.61-8.44,14.53-13.69
			c-0.31-2.24-0.45-3.36-0.71-5.61c-7.3-3.39-10.93-5.22-18.13-9.13c7.22-0.67,10.84-1,18.06-1.66c-0.28-3.35-0.4-5.03-0.59-8.38
			c-10.5,0.66-20.99,1.31-31.49,1.98c0.21,3.72,0.34,5.58,0.65,9.3c7.44,4.27,15.13,8.26,22.88,11.86
			c-6.81,5.88-13.37,11.86-19.89,18.1c1.43,3.54,2.17,5.29,3.69,8.77c9.89-2.17,19.79-4.34,29.69-6.5
			C77.49,497.08,77.18,495.43,76.61,492.11z"/>
		<path class="st3" d="M72.48,454.33c-0.17-3.54-0.23-5.31-0.31-8.85c-8.05-4.06-15.9-8.27-23.75-12.73
			c5.29-2.88,7.95-4.26,13.3-6.89c-0.16,4.08-0.21,6.13-0.25,10.21c2.56,1.31,3.84,1.94,6.41,3.19c-0.01-6.63,0.08-9.95,0.41-16.58
			c1.73-0.81,2.6-1.21,4.34-1.99c0.2-3.54,0.33-5.3,0.64-8.83c-11.35,4.98-22.39,10.35-33.35,16.21c0.7,3.76,1.07,5.63,1.87,9.35
			C51.85,443.48,62.02,449.08,72.48,454.33z"/>
		<path class="st3" d="M43.32,406.21c10.06,1.04,20.12,2.09,30.18,3.13c0.32-3.35,0.5-5.02,0.9-8.35
			c-8.26-1.1-12.39-1.65-20.65-2.76c7.71-5.45,15.39-10.54,23.41-15.48c0.6-3.31,0.92-4.96,1.61-8.26
			c-10.27-2.36-20.54-4.74-30.81-7.1c-0.77,3.66-1.12,5.49-1.79,9.17c7.86,1.57,11.79,2.35,19.65,3.93
			c-8.08,5.01-15.93,10.43-23.52,16.22C42.65,400.52,42.85,402.42,43.32,406.21z"/>
		<path class="st3" d="M79.3,371.99c0.76-3.47,1.16-5.2,2.01-8.65c-6.68-6.24-13.13-12.56-19.51-19.14
			c5.85-1.28,8.77-1.86,14.61-2.88c-1.24,3.92-1.82,5.89-2.93,9.84c2.12,2,3.18,2.98,5.33,4.93c1.73-6.43,2.68-9.63,4.76-15.97
			c1.88-0.29,2.82-0.43,4.7-0.69c1.13-3.38,1.72-5.06,2.96-8.41c-12.24,1.6-24.29,3.67-36.39,6.22c-0.32,3.85-0.45,5.78-0.66,9.61
			C62.29,355.58,70.6,363.9,79.3,371.99z"/>
		<path class="st3" d="M76.76,325.22c7.74,3.12,16.6,0.19,19.99-8.13c3.57-8.41,5.52-12.56,9.74-20.73
			c-5.67-3.21-8.5-4.81-14.17-8.02c-0.94,3.61-1.38,5.41-2.21,9.01c2.63,1.39,3.94,2.08,6.57,3.47c-2.38,4.94-3.51,7.43-5.67,12.46
			c-1.89,4.4-7.1,4.82-11.33,2.96c-4.12-1.82-7.27-5.92-5.21-10.73c3.09-7.29,6.5-14.52,10.15-21.52c-2.82-0.45-4.24-0.66-7.07-1.06
			c-4.15,8.18-6.08,12.33-9.64,20.73C64.07,312.44,68.43,321.87,76.76,325.22z"/>
		<path class="st3" d="M126.69,262.82c-1.64-2.42-2.45-3.64-4.06-6.09c-5.1,7.46-9.9,14.92-14.58,22.68
			c-1.95-1.24-2.92-1.86-4.86-3.1c3.88-6.73,8.08-13.36,12.49-19.72c-2.18-1.64-3.27-2.46-5.45-4.09
			c-4.51,6.51-8.8,13.28-12.77,20.16c-1.96-1.25-2.94-1.87-4.9-3.12c4.34-7.52,9.06-14.92,14.02-22c-1.59-2.48-2.38-3.74-3.94-6.25
			c-7.48,10.49-14.25,21.54-20.48,32.88c9.14,5.45,18.28,10.9,27.42,16.35C114.79,280.97,120.5,271.71,126.69,262.82z"/>
		<path class="st3" d="M140.71,212.68c-3.9-4.05-11.47-4.54-17.76,2.71c-5.35,6.12-10.52,12.54-15.37,19.11
			c1.49,2.56,2.25,3.83,3.78,6.36c5.21-7.17,10.81-13.93,16.5-20.68c1.93-2.22,4.36-1.88,5.84-0.43c1.52,1.48,2.05,4.04,0.21,6.17
			c-4.36,5.03-6.46,7.59-10.52,12.79c-1.73-1.47-2.59-2.21-4.32-3.68c-1.68,3.5-2.49,5.25-4.04,8.77
			c6.42,5.14,9.63,7.72,16.04,12.86c2.05-2.8,3.1-4.19,5.24-6.94c-3.09-2.63-4.64-3.95-7.73-6.58c2.96-3.8,4.48-5.67,7.6-9.38
			c5.13,0.23,7.67,0.39,12.73,0.83c2.76-3.1,4.17-4.63,7.06-7.65c-5.55-0.47-8.36-0.64-14-0.84
			C144.65,220.79,143.65,215.74,140.71,212.68z"/>
		<path class="st3" d="M591.56,687.06c4.63,5.46,6.95,8.19,11.58,13.65c-7.82-1.92-11.66-3.01-19.18-5.43
			c-1.76,1.52-2.65,2.27-4.43,3.75c0.85,8.44,1.16,12.7,1.52,21.31c-4.28-6.13-6.42-9.2-10.7-15.33c-2.71,2.08-4.07,3.09-6.83,5.08
			c5.95,9.08,11.91,18.15,17.86,27.23c3.06-2.2,4.57-3.33,7.58-5.64c-0.33-9.06-0.72-18.07-1.63-27.09
			c8.55,2.87,17.02,5.44,25.71,7.81c2.3-3.28,3.43-4.94,5.64-8.3c-6.94-7.7-13.87-15.4-20.81-23.1
			C595.38,683.47,594.12,684.68,591.56,687.06z"/>
		<path class="st3" d="M530.81,730.43c0.42,2.93,0.62,4.39,1,7.33c7.74-3.98,15.16-8.49,22.58-13.09c1.19,2.03,1.78,3.05,2.97,5.08
			c-7.67,4.92-11.58,7.22-19.51,11.48c1.23,2.5,1.84,3.75,3.06,6.25c6.78-3.61,13.48-7.55,19.94-11.74c1.2,2.05,1.8,3.07,2.99,5.12
			c-7.06,4.57-14.4,8.87-21.82,12.76c0.35,2.96,0.52,4.45,0.83,7.42c11.08-5.99,21.74-12.39,32.28-19.36
			c-5.75-9.22-11.49-18.44-17.24-27.66C549.17,720.01,540.12,725.49,530.81,730.43z"/>
		<path class="st3" d="M525.24,761.89c-3.29-7.95-6.59-15.91-9.88-23.86c-3,1.36-4.5,2.01-7.52,3.28c3.08,8.05,6.15,16.1,9.23,24.15
			c-5.15,2.16-7.74,3.17-12.96,5.08c-0.01,2.98-0.03,4.47-0.09,7.46c12.53-4.4,24.75-9.79,36.64-15.8
			c-1.18-2.53-1.76-3.79-2.94-6.32C532.77,758.41,530.27,759.61,525.24,761.89z"/>
		<path class="st3" d="M489.06,774.38c-4.24-4.41-6.31-6.65-10.33-11.2c3.8-1.07,5.69-1.63,9.45-2.84c0.43-2.95,0.63-4.42,1.01-7.37
			c-6.1,2.02-9.17,2.94-15.34,4.59c-1.26-1.49-1.89-2.24-3.13-3.74c-3.3,0.86-4.96,1.26-8.28,2.02c7.98,9.85,16.22,19.25,24.9,28.43
			c3.24-1.83,4.85-2.77,8.03-4.69c2.51-11.89,4.61-23.74,6.31-35.79c-3.21,1.25-4.82,1.85-8.06,3
			C492.3,756.07,490.8,765.18,489.06,774.38z"/>
		<path class="st3" d="M452.15,757.99c1.24,7.19,1.85,10.78,3.09,17.97c-5.45-5.96-8.07-9.01-13.07-15.21
			c-2.14,0.32-3.21,0.47-5.36,0.75c-3.24,7.64-4.98,11.44-8.72,18.98c-0.64-7.56-0.95-11.34-1.59-18.91c-3.2,0.29-4.8,0.42-8,0.62
			c0.63,10.99,1.26,21.98,1.89,32.97c3.56-0.22,5.33-0.36,8.89-0.68c4.08-7.79,7.89-15.84,11.33-23.95
			c5.62,7.13,11.33,14,17.29,20.82c3.38-1.5,5.06-2.27,8.38-3.87c-2.07-10.36-4.14-20.72-6.21-31.08
			C456.9,757.07,455.32,757.39,452.15,757.99z"/>
		<path class="st3" d="M395.46,787.5c-2.75-5.54-4.07-8.32-6.58-13.92c3.9,0.17,5.85,0.22,9.76,0.26c1.25-2.68,1.86-4.02,3.05-6.71
			c-6.34,0.01-9.5-0.08-15.83-0.43c-0.77-1.82-1.15-2.73-1.9-4.55c-3.38-0.21-5.07-0.35-8.44-0.67
			c4.76,11.88,9.89,23.44,15.49,34.92c3.6-0.73,5.38-1.12,8.93-1.96c5.76-10.55,11.11-21.19,16.13-32.14
			c-3.38,0.18-5.07,0.24-8.45,0.32C403.74,771.06,399.72,779.28,395.46,787.5z"/>
		<path class="st3" d="M362.48,781.92c-5.21-8.07-10.07-16.11-14.79-24.5c-3.16-0.63-4.74-0.97-7.89-1.69
			c-2.26,10.75-4.52,21.5-6.78,32.26c3.5,0.8,5.25,1.18,8.76,1.88c1.5-8.23,2.25-12.34,3.75-20.57c4.79,8.46,9.96,16.67,15.49,24.62
			c3.65-0.37,5.47-0.59,9.08-1.07c1-10.53,2-21.06,2.99-31.59c-3.2-0.33-4.79-0.52-7.98-0.94
			C364.06,768.96,363.53,773.28,362.48,781.92z"/>
		<path class="st3" d="M329.15,753.07c-5.96,7-12,13.74-18.28,20.43c-1.23-6.12-1.78-9.18-2.75-15.29c3.75,1.29,5.63,1.91,9.4,3.07
			c1.91-2.22,2.85-3.33,4.71-5.58c-6.14-1.81-9.2-2.81-15.25-4.98c-0.28-1.97-0.41-2.96-0.66-4.92c-3.23-1.19-4.83-1.81-8.03-3.1
			c1.53,12.82,3.5,25.43,5.94,38.09c3.68,0.34,5.52,0.47,9.18,0.69c8.34-8.49,16.29-17.19,24.01-26.3
			C334.1,754.38,332.44,753.96,329.15,753.07z"/>
		<path class="st3" d="M284.97,736.91c-8.04-3.74-12-5.78-19.8-10.2c-3.06,5.93-4.59,8.9-7.66,14.83c3.45,0.98,5.17,1.45,8.61,2.31
			c1.33-2.75,1.99-4.13,3.31-6.88c4.72,2.49,7.1,3.68,11.9,5.93c4.21,1.98,4.6,7.43,2.82,11.87c-1.73,4.32-5.65,7.61-10.25,5.46
			c-6.96-3.24-13.87-6.81-20.55-10.63c-0.43,2.95-0.63,4.43-1.01,7.4c7.81,4.34,11.78,6.36,19.81,10.1
			c8.38,4.02,17.39-0.54,20.6-9.26C295.72,749.72,292.92,740.45,284.97,736.91z"/>
		<path class="st3" d="M233.13,705.56c-2.31,1.71-3.47,2.56-5.81,4.25c7.13,5.34,14.25,10.37,21.67,15.26
			c-1.18,2.04-1.78,3.05-2.96,5.09c-6.43-4.06-12.76-8.46-18.84-13.08c-1.56,2.28-2.35,3.42-3.91,5.71
			c6.21,4.72,12.69,9.21,19.26,13.37c-1.19,2.05-1.79,3.08-2.98,5.13c-7.18-4.54-14.26-9.48-21.02-14.68
			c-2.37,1.67-3.57,2.49-5.97,4.12c10.02,7.83,20.58,14.92,31.41,21.44c5.21-9.57,10.42-19.13,15.62-28.7
			C250.47,718.02,241.63,712.04,233.13,705.56z"/>
		<path class="st3" d="M192.01,698.23c1.41-1.59,3.86-2.15,5.89-0.22c4.8,4.56,7.25,6.76,12.22,11.01
			c-1.41,1.81-2.11,2.71-3.52,4.52c3.34,1.76,5.02,2.6,8.38,4.23c4.91-6.72,7.37-10.08,12.29-16.8c-2.67-2.15-4-3.25-6.63-5.49
			c-2.51,3.24-3.77,4.85-6.29,8.09c-3.63-3.1-5.42-4.69-8.96-7.96c0.22-5.37,0.38-8.03,0.8-13.33c-2.96-2.89-4.42-4.37-7.31-7.39
			c-0.45,5.82-0.61,8.75-0.8,14.65c-5.09-2.79-9.92-1.75-12.84,1.33c-3.87,4.08-4.33,12.01,2.59,18.59
			c5.85,5.6,11.98,11.01,18.25,16.1c2.45-1.56,3.66-2.36,6.08-3.96c-6.84-5.45-13.3-11.32-19.75-17.27
			C190.29,702.33,190.62,699.79,192.01,698.23z"/>
	</g>
</g>
</svg>
