<svg width="24" height="17" viewBox="0 0 24 17" fill="none" xmlns="http://www.w3.org/2000/svg">
<mask id="mask0_104_1634" style="mask-type:alpha" maskUnits="userSpaceOnUse" x="0" y="0" width="24" height="17">
<path d="M20.8152 4.13072C20.8301 4.31189 20.8301 4.49306 20.8301 4.67423C20.8422 6.23953 20.5005 7.79133 19.825 9.23954C19.1495 10.6877 18.1535 12.0035 16.895 13.1103C15.6364 14.2172 14.1404 15.0931 12.4937 15.6872C10.8471 16.2813 9.08258 16.5818 7.30278 16.5712C4.71392 16.5778 2.178 15.9266 0 14.6958C0.381438 14.7329 0.765017 14.7503 1.14877 14.748C3.28905 14.7527 5.36871 14.1231 7.05224 12.9608C6.0586 12.9463 5.09499 12.6589 4.29632 12.1388C3.49764 11.6187 2.90389 10.892 2.59819 10.0604C2.89532 10.102 3.19558 10.1238 3.49642 10.1257C3.92074 10.1269 4.34352 10.0808 4.75469 9.9886C3.67697 9.79685 2.70812 9.28253 2.01309 8.53319C1.31806 7.78384 0.939825 6.84581 0.942773 5.87878V5.82655C1.60161 6.1498 2.33798 6.33156 3.09185 6.35701C2.08274 5.76524 1.3684 4.85715 1.09457 3.81801C0.820736 2.77887 1.00805 1.687 1.6183 0.765175C2.81262 2.0581 4.30263 3.11578 5.99168 3.86963C7.68073 4.62347 9.5311 5.05664 11.4228 5.14104C11.3467 4.82602 11.3076 4.50498 11.3058 4.18295C11.3063 3.34403 11.5934 2.5246 12.13 1.83097C12.6665 1.13735 13.4277 0.601554 14.3148 0.293115C15.2018 -0.0153234 16.1738 -0.0821679 17.1046 0.101255C18.0354 0.284678 18.8821 0.709901 19.5347 1.32175C20.5995 1.14124 21.6206 0.799383 22.5523 0.311431C22.198 1.27776 21.455 2.0972 20.4626 2.61606C21.407 2.51972 22.3297 2.29966 23.2 1.96319C22.5491 2.79693 21.7428 3.52807 20.8152 4.12582V4.13072Z" fill="white"/>
</mask>
<g mask="url(#mask0_104_1634)">
<rect x="-36" y="-57" width="96" height="74" rx="37" fill="white"/>
</g>
</svg>
